<svg width="30" height="30" viewBox="0 0 30 30" fill="none" xmlns="http://www.w3.org/2000/svg">
<path d="M15 9.75V3H8.25C7.65326 3 7.08097 3.23705 6.65901 3.65901C6.23705 4.08097 6 4.65326 6 5.25V13.8105C6.7321 13.6038 7.48927 13.4993 8.25 13.5C10.0155 13.5 11.652 14.055 12.9945 15H20.25C20.4489 15 20.6397 15.079 20.7803 15.2197C20.921 15.3603 21 15.5511 21 15.75C21 15.9489 20.921 16.1397 20.7803 16.2803C20.6397 16.421 20.4489 16.5 20.25 16.5H14.6145C14.994 16.9605 15.3255 17.463 15.6 18H20.25C20.4489 18 20.6397 18.079 20.7803 18.2197C20.921 18.3603 21 18.5511 21 18.75C21 18.9489 20.921 19.1397 20.7803 19.2803C20.6397 19.421 20.4489 19.5 20.25 19.5H16.1895C16.3281 19.9904 16.421 20.4925 16.467 21H20.25C20.4489 21 20.6397 21.079 20.7803 21.2197C20.921 21.3603 21 21.5511 21 21.75C21 21.9489 20.921 22.1397 20.7803 22.2803C20.6397 22.421 20.4489 22.5 20.25 22.5H16.467C16.3182 24.1527 15.6724 25.7216 14.6145 27H21.75C22.3467 27 22.919 26.7629 23.341 26.341C23.7629 25.919 24 25.3467 24 24.75V12H17.25C16.6533 12 16.081 11.7629 15.659 11.341C15.2371 10.919 15 10.3467 15 9.75ZM16.5 9.75V3.375L23.625 10.5H17.25C17.0511 10.5 16.8603 10.421 16.7197 10.2803C16.579 10.1397 16.5 9.94891 16.5 9.75ZM8.25 28.5C10.0402 28.5 11.7571 27.7888 13.023 26.523C14.2888 25.2571 15 23.5402 15 21.75C15 19.9598 14.2888 18.2429 13.023 16.977C11.7571 15.7112 10.0402 15 8.25 15C6.45979 15 4.7429 15.7112 3.47703 16.977C2.21116 18.2429 1.5 19.9598 1.5 21.75C1.5 23.5402 2.21116 25.2571 3.47703 26.523C4.7429 27.7888 6.45979 28.5 8.25 28.5ZM7.5 18.75C7.5 18.5511 7.57902 18.3603 7.71967 18.2197C7.86032 18.079 8.05109 18 8.25 18C8.44891 18 8.63968 18.079 8.78033 18.2197C8.92098 18.3603 9 18.5511 9 18.75V21H10.5C10.6989 21 10.8897 21.079 11.0303 21.2197C11.171 21.3603 11.25 21.5511 11.25 21.75C11.25 21.9489 11.171 22.1397 11.0303 22.2803C10.8897 22.421 10.6989 22.5 10.5 22.5H8.25C8.05109 22.5 7.86032 22.421 7.71967 22.2803C7.57902 22.1397 7.5 21.9489 7.5 21.75V18.75Z" fill="#CF2E25"/>
</svg>
